# 3ds Max Wavefront OBJ Exporter v0.97b - (c)2007 guruware
# File Created: 02.02.2014 21:58:03

mtllib coffeeBean.mtl

#
# object Sphere001
#

v  3.4381 -2.1689 11.2192
v  1.7527 -3.3427 10.7189
v  1.7527 -5.0027 7.1621
v  -3.4381 5.2362 4.6471
v  0.0000 2.9907 9.2943
v  0.0000 3.8205 5.0300
v  -8.3003 2.3025 0.9813
v  -6.3528 4.2545 1.8132
v  -7.4701 3.1488 -2.7945
v  3.4381 0.0000 -12.1436
v  -1.7527 -1.1738 -12.6438
v  0.0000 1.1968 -12.8915
v  3.4381 -2.1689 -11.2192
v  -6.3528 -2.4100 7.7279
v  -7.4701 -1.8935 6.0718
v  -7.4701 -3.1488 2.7945
v  3.4381 -5.5587 2.3691
v  4.9913 -5.1007 -0.0000
v  4.9913 -4.2411 6.0718
v  6.3528 3.0673 -6.5720
v  4.9913 1.9520 -10.0970
v  4.9913 4.2411 -6.0718
v  -7.4701 0.6649 7.1622
v  -6.3528 1.6600 8.5868
v  -6.3528 3.0673 6.5721
v  -3.4381 2.1689 11.2192
v  0.0000 1.1968 12.8915
v  -3.4381 4.0076 8.5868
v  1.7527 -1.1738 12.6438
v  7.4701 -2.8338 4.0570
v  8.8115 -0.9951 1.4246
v  8.3003 -0.8984 4.6471
v  0.0000 -5.1008 7.3025
v  -1.7527 -3.3427 10.7189
v  -1.7527 -5.5587 4.9334
v  0.0000 -3.4082 -10.9289
v  -1.7527 -4.2545 -9.1157
v  -1.7527 -2.3025 -11.9102
v  -8.3003 2.1689 -1.9249
v  -8.8115 0.2335 -2.5150
v  -8.8115 0.8463 1.8132
v  -8.3003 -1.3043 4.1823
v  -8.3003 -2.3025 -0.9813
v  0.0000 3.8205 -5.0300
v  -3.4381 5.5587 -2.3691
v  -3.4381 5.6676 0.0000
v  -4.9913 1.9520 -10.0970
v  4.9913 4.2411 6.0718
v  3.4381 5.5587 2.3691
v  3.4381 4.7125 6.7466
v  4.9913 -0.0000 10.9289
v  7.4701 -0.0000 7.3025
v  6.3528 1.6600 8.5868
v  7.4701 -2.8338 -4.0570
v  4.9913 -4.2411 -6.0718
v  6.3528 -1.6600 -8.5868
v  8.3003 0.8984 -4.6471
v  7.4701 1.3043 -6.7466
v  7.4701 2.8338 -4.0570
v  -7.4701 0.6649 -7.1622
v  -6.3528 1.6600 -8.5868
v  -6.3528 -0.8463 -9.1157
v  -3.4381 -4.0076 -8.5868
v  -7.4701 -2.8338 -4.0570
v  -6.3528 -2.4100 -7.7279
v  -3.4381 -5.6676 -0.0000
v  0.0000 -6.0167 -2.5643
v  1.7527 -6.0167 -0.0000
v  3.4381 -5.2362 -4.6472
v  4.9913 5.1007 0.0000
v  -4.9913 -5.0027 -2.1321
v  -4.9913 -4.7125 4.1823
v  8.3003 1.9520 -2.7945
v  8.8115 0.9951 1.4246
v  8.8115 0.4580 -2.3691
v  6.3528 4.3378 0.0000
v  -6.3528 3.0673 -6.5720
v  7.4701 -3.4082 -0.0000
v  8.3003 -1.3043 -4.1823
v  7.4701 -1.3043 -6.7466
v  -3.4381 -0.0000 12.1436
v  -8.8115 -1.1057 0.9813
v  -8.3003 -1.3043 -4.1823
v  3.4381 5.6676 0.0000
v  3.4381 5.2362 -4.6471
v  3.4381 2.1689 -11.2192
v  3.4381 4.0076 -8.5868
v  1.7527 -5.0027 -7.1622
v  -3.4381 4.7125 -6.7466
v  0.0000 2.4106 -10.9289
v  -3.4381 3.1488 -10.0970
v  3.4381 3.1488 10.0970
v  7.4701 2.4100 5.1636
v  -7.4701 2.8338 4.0570
v  -4.9913 -0.9951 10.7189
v  -8.9842 -0.0000 -0.0000
v  6.3528 -1.6600 8.5868
v  -3.4381 -3.1488 10.0970
v  -3.4381 -1.1057 -11.9102
v  8.3003 1.3043 4.1823
v  8.3003 2.3025 0.9813
v  7.4701 3.4082 0.0000
v  -4.9913 5.0027 2.1321
v  -4.9913 3.6068 7.7279
v  1.7527 -5.5587 4.9334
v  -8.3003 0.4580 4.9334
v  -3.4381 -5.2362 -4.6472
v  8.8115 -0.6649 -2.1321
v  4.9913 -1.9520 10.0970
v  6.3528 -4.2545 1.8132
v  0.0000 2.4106 10.9289
v  6.3528 0.0000 -9.2943
v  -1.7527 -1.1738 12.6438
v  -6.3528 -4.2545 -1.8132
v  -8.3003 0.4580 -4.9334
v  6.3528 3.6068 5.1636
v  0.0000 2.9907 -9.2943
v  6.3528 -4.2545 -1.8132
v  -1.7527 -0.0000 12.8915
v  1.7527 -3.3427 -10.7189
# 120 vertices

vn 0.3865 -0.3849 0.8381
vn 0.2227 -0.5655 0.7941
vn 0.2474 -0.7727 0.5846
vn -0.0372 0.9300 0.3657
vn -0.0070 0.8362 0.5484
vn 0.0119 0.9641 0.2653
vn -0.9181 0.3865 0.0882
vn -0.7088 0.6971 0.1078
vn -0.7934 0.5628 -0.2317
vn 0.3585 -0.0181 -0.9333
vn -0.1303 -0.1190 -0.9843
vn -0.0293 0.2442 -0.9693
vn 0.3715 -0.3575 -0.8569
vn -0.6855 -0.4141 0.5989
vn -0.8225 -0.2922 0.4879
vn -0.8167 -0.5369 0.2115
vn 0.4029 -0.8983 0.1754
vn 0.5155 -0.8568 -0.0142
vn 0.5442 -0.6786 0.4933
vn 0.6870 0.5037 -0.5237
vn 0.5600 0.2842 -0.7783
vn 0.5782 0.6942 -0.4287
vn -0.8182 0.0865 0.5684
vn -0.6818 0.2574 0.6848
vn -0.7119 0.5093 0.4836
vn -0.3428 0.3821 0.8582
vn 0.0423 0.2801 0.9590
vn -0.1564 0.7198 0.6763
vn 0.1820 -0.1617 0.9699
vn 0.8269 -0.4563 0.3285
vn 0.9783 -0.1866 0.0897
vn 0.9206 -0.1541 0.3587
vn -0.0547 -0.8087 0.5857
vn -0.1650 -0.5650 0.8084
vn -0.2122 -0.9066 0.3646
vn 0.0117 -0.5315 -0.8470
vn -0.1793 -0.7140 -0.6768
vn -0.2149 -0.4083 -0.8872
vn -0.9254 0.3334 -0.1801
vn -0.9835 0.0370 -0.1773
vn -0.9762 0.1531 0.1536
vn -0.9284 -0.2028 0.3113
vn -0.9225 -0.3818 -0.0577
vn -0.0119 0.9641 -0.2653
vn -0.0531 0.9733 -0.2234
vn 0.0214 0.9997 0.0073
vn -0.5067 0.2918 -0.8113
vn 0.5697 0.6823 0.4581
vn 0.0032 0.9745 0.2244
vn 0.0579 0.8542 0.5167
vn 0.5236 0.0356 0.8512
vn 0.8214 0.0030 0.5704
vn 0.6827 0.2877 0.6717
vn 0.8275 -0.4654 -0.3139
vn 0.5549 -0.6642 -0.5008
vn 0.6657 -0.3171 -0.6755
vn 0.9180 0.1232 -0.3770
vn 0.8193 0.2052 -0.5354
vn 0.8102 0.5037 -0.2997
vn -0.8348 0.1031 -0.5409
vn -0.7119 0.2519 -0.6556
vn -0.7105 -0.1345 -0.6907
vn -0.4316 -0.6196 -0.6557
vn -0.7938 -0.5060 -0.3374
vn -0.6847 -0.4232 -0.5933
vn -0.3469 -0.9376 0.0255
vn -0.0286 -0.9788 -0.2030
vn 0.1780 -0.9840 0.0025
vn 0.3832 -0.8668 -0.3192
vn 0.5756 0.8170 -0.0344
vn -0.5763 -0.7957 -0.1862
vn -0.5523 -0.7598 0.3430
vn 0.9259 0.3216 -0.1982
vn 0.9856 0.1364 0.1001
vn 0.9843 0.0714 -0.1614
vn 0.6871 0.7252 -0.0435
vn -0.6932 0.5371 -0.4805
vn 0.8621 -0.5067 -0.0039
vn 0.9305 -0.2210 -0.2922
vn 0.8355 -0.2034 -0.5105
vn -0.4339 0.0268 0.9006
vn -0.9765 -0.2015 0.0764
vn -0.9176 -0.2038 -0.3412
vn -0.0471 0.9974 -0.0548
vn 0.0671 0.9461 -0.3169
vn 0.3064 0.3821 -0.8719
vn 0.1680 0.7181 -0.6754
vn 0.1700 -0.8099 -0.5614
vn -0.1274 0.8542 -0.5041
vn 0.0059 0.6645 -0.7473
vn -0.2804 0.5694 -0.7728
vn 0.2696 0.5370 0.7993
vn 0.8262 0.3980 0.3988
vn -0.8368 0.4500 0.3118
vn -0.5585 -0.1521 0.8154
vn -0.9999 0.0023 -0.0117
vn 0.7046 -0.2501 0.6641
vn -0.4082 -0.5367 0.7384
vn -0.4152 -0.1334 -0.8999
vn 0.9206 0.1937 0.3390
vn 0.9184 0.3869 0.0826
vn 0.8272 0.5618 0.0069
vn -0.5708 0.8067 0.1529
vn -0.5453 0.5740 0.6108
vn 0.1849 -0.9219 0.3403
vn -0.9256 0.0798 0.3701
vn -0.3746 -0.8426 -0.3870
vn 0.9776 -0.1585 -0.1384
vn 0.5610 -0.3442 0.7528
vn 0.6849 -0.7069 0.1766
vn -0.0059 0.6645 0.7473
vn 0.6870 0.0066 -0.7266
vn -0.1895 -0.2436 0.9512
vn -0.7046 -0.6911 -0.1610
vn -0.9138 0.1030 -0.3929
vn 0.7047 0.5956 0.3855
vn 0.0070 0.8362 -0.5484
vn 0.6849 -0.7069 -0.1766
vn -0.1738 0.0581 0.9831
vn 0.2534 -0.5364 -0.8050
# 120 vertex normals

vt 0.7996 0.1245 0.0000
vt 0.7540 0.0904 0.0000
vt 0.7540 0.0100 0.0000
vt 0.2223 0.2701 0.0000
vt 0.1185 0.3049 0.0000
vt 0.1464 0.2427 0.0000
vt 0.1264 0.9177 0.0000
vt 0.1011 0.9810 0.0000
vt 0.0599 0.9092 0.0000
vt 0.6400 0.1409 0.0000
vt 0.5363 0.2158 0.0000
vt 0.5509 0.1260 0.0000
vt 0.6624 0.2117 0.0000
vt 0.3046 0.8409 0.0000
vt 0.2728 0.8414 0.0000
vt 0.2522 0.7768 0.0000
vt 0.0834 0.5641 0.0000
vt 0.0874 0.6164 0.0000
vt 0.0150 0.5518 0.0000
vt 0.9518 0.0100 0.0000
vt 0.9900 0.0418 0.0000
vt 0.9116 0.0418 0.0000
vt 0.2398 0.9244 0.0000
vt 0.2403 0.9654 0.0000
vt 0.1871 0.9883 0.0000
vt 0.6500 0.4583 0.0000
vt 0.5630 0.4558 0.0000
vt 0.6758 0.4009 0.0000
vt 0.4424 0.5280 0.0000
vt 0.4923 0.5130 0.0000
vt 0.4619 0.5808 0.0000
vt 0.4526 0.7133 0.0000
vt 0.4947 0.7762 0.0000
vt 0.4432 0.7796 0.0000
vt 0.0780 0.4516 0.0000
vt 0.0646 0.3846 0.0000
vt 0.1336 0.4462 0.0000
vt 0.5985 0.2764 0.0000
vt 0.5681 0.3164 0.0000
vt 0.5480 0.2527 0.0000
vt 0.0899 0.8886 0.0000
vt 0.1180 0.8278 0.0000
vt 0.1646 0.8831 0.0000
vt 0.2365 0.8419 0.0000
vt 0.1858 0.7683 0.0000
vt 0.2123 0.0960 0.0000
vt 0.2682 0.1678 0.0000
vt 0.2527 0.2023 0.0000
vt 0.4318 0.1366 0.0000
vt 0.0331 0.2101 0.0000
vt 0.0905 0.1710 0.0000
vt 0.0618 0.2348 0.0000
vt 0.4397 0.4453 0.0000
vt 0.3868 0.4216 0.0000
vt 0.4339 0.3804 0.0000
vt 0.5823 0.7133 0.0000
vt 0.6145 0.6651 0.0000
vt 0.6547 0.7535 0.0000
vt 0.5917 0.8411 0.0000
vt 0.6253 0.8550 0.0000
vt 0.5823 0.9074 0.0000
vt 0.3899 0.1961 0.0000
vt 0.4045 0.1557 0.0000
vt 0.4304 0.2375 0.0000
vt 0.3211 0.5606 0.0000
vt 0.3298 0.4421 0.0000
vt 0.3562 0.5006 0.0000
vt 0.2187 0.4693 0.0000
vt 0.1957 0.5566 0.0000
vt 0.1379 0.5599 0.0000
vt 0.1670 0.6387 0.0000
vt 0.0465 0.0386 0.0000
vt 0.1126 0.0330 0.0000
vt 0.0729 0.1215 0.0000
vt 0.2683 0.4649 0.0000
vt 0.1930 0.3977 0.0000
vt 0.5621 0.8772 0.0000
vt 0.4947 0.8444 0.0000
vt 0.5553 0.8260 0.0000
vt 0.0438 0.1085 0.0000
vt 0.3570 0.2002 0.0000
vt 0.3030 0.2567 0.0000
vt 0.0100 0.8160 0.0000
vt 0.0476 0.7998 0.0000
vt 0.0108 0.8740 0.0000
vt 0.5174 0.6936 0.0000
vt 0.5843 0.7657 0.0000
vt 0.6253 0.7657 0.0000
vt 0.6195 0.5261 0.0000
vt 0.0100 0.4458 0.0000
vt 0.1899 0.8197 0.0000
vt 0.1243 0.7691 0.0000
vt 0.0974 0.7065 0.0000
vt 0.1545 0.7263 0.0000
vt 0.1060 0.1364 0.0000
vt 0.1364 0.0687 0.0000
vt 0.6176 0.0700 0.0000
vt 0.5986 0.0100 0.0000
vt 0.3012 0.5957 0.0000
vt 0.2955 0.6456 0.0000
vt 0.2233 0.6361 0.0000
vt 0.7221 0.1745 0.0000
vt 0.7184 0.2684 0.0000
vt 0.3900 0.1097 0.0000
vt 0.4380 0.0355 0.0000
vt 0.2509 0.0100 0.0000
vt 0.3188 0.0551 0.0000
vt 0.2969 0.1039 0.0000
vt 0.5170 0.3618 0.0000
vt 0.4349 0.8929 0.0000
vt 0.3802 0.8672 0.0000
vt 0.4007 0.8103 0.0000
vt 0.1577 0.9597 0.0000
vt 0.1965 0.3275 0.0000
vt 0.3184 0.9076 0.0000
vt 0.1561 0.8430 0.0000
vt 0.4386 0.6326 0.0000
vt 0.3802 0.5778 0.0000
vt 0.3802 0.7535 0.0000
vt 0.6790 0.6239 0.0000
vt 0.6479 0.6293 0.0000
vt 0.6387 0.5721 0.0000
vt 0.5753 0.6245 0.0000
vt 0.4465 0.2886 0.0000
vt 0.4981 0.2255 0.0000
vt 0.5280 0.3202 0.0000
vt 0.6788 0.8772 0.0000
vt 0.6225 0.9154 0.0000
vt 0.4506 0.8550 0.0000
vt 0.5018 0.8892 0.0000
vt 0.5174 0.9270 0.0000
vt 0.2719 0.2483 0.0000
vt 0.2352 0.3299 0.0000
vt 0.0790 0.5074 0.0000
vt 0.2137 0.8990 0.0000
vt 0.2741 0.5187 0.0000
vt 0.7149 0.5439 0.0000
vt 0.7050 0.5021 0.0000
vt 0.4541 0.0865 0.0000
vt 0.5384 0.0864 0.0000
vt 0.5515 0.7875 0.0000
vt 0.4123 0.5063 0.0000
vt 0.0446 0.6208 0.0000
vt 0.5800 0.4178 0.0000
vt 0.0982 0.3618 0.0000
vt 0.7049 0.1203 0.0000
vt 0.5671 0.5466 0.0000
vt 0.5367 0.6144 0.0000
vt 0.2111 0.7050 0.0000
vt 0.0814 0.8132 0.0000
vt 0.6540 0.3161 0.0000
vt 0.4349 0.9338 0.0000
vt 0.2402 0.0338 0.0000
vt 0.7308 0.7444 0.0000
vt 0.7108 0.6649 0.0000
vt 0.8130 0.6646 0.0000
vt 0.7033 0.4283 0.0000
vt 0.4204 0.6651 0.0000
vt 0.4885 0.6646 0.0000
vt 0.3000 0.7439 0.0000
vt 0.2481 0.3692 0.0000
vt 0.2857 0.4377 0.0000
vt 0.5464 0.6646 0.0000
vt 0.1622 0.0112 0.0000
vt 0.8439 0.4372 0.0000
vt 0.7567 0.4520 0.0000
vt 0.8070 0.3630 0.0000
vt 0.8796 0.1071 0.0000
vt 0.8400 0.1171 0.0000
vt 0.8350 0.0161 0.0000
vt 0.3874 0.4841 0.0000
vt 0.3579 0.1344 0.0000
vt 0.6660 0.8103 0.0000
vt 0.6544 0.0662 0.0000
vt 0.7164 0.0698 0.0000
vt 0.5836 0.5099 0.0000
vt 0.7551 0.8086 0.0000
vt 0.7108 0.7764 0.0000
vt 0.8253 0.7803 0.0000
vt 0.1599 0.6810 0.0000
vt 0.0496 0.7394 0.0000
vt 0.7857 0.2011 0.0000
vt 0.7540 0.1564 0.0000
vt 0.8555 0.1564 0.0000
vt 0.0879 0.6594 0.0000
vt 0.0488 0.6596 0.0000
vt 0.8476 0.3618 0.0000
vt 0.1078 0.3287 0.0000
vt 0.0399 0.2836 0.0000
vt 0.8313 0.4840 0.0000
vt 0.8799 0.5135 0.0000
vt 0.7567 0.5140 0.0000
vt 0.6369 0.2619 0.0000
vt 0.0524 0.4836 0.0000
vt 0.6145 0.9556 0.0000
vt 0.2718 0.3261 0.0000
vt 0.7247 0.4582 0.0000
vt 0.7659 0.3663 0.0000
vt 0.0100 0.1838 0.0000
vt 0.5174 0.9589 0.0000
vt 0.2657 0.6739 0.0000
# 201 texture coords

g Sphere001
usemtl wire_038019000
s 1
f 1/1/1 2/2/2 3/3/3 
f 4/4/4 5/5/5 6/6/6 
f 7/7/7 8/8/8 9/9/9 
f 10/10/10 11/11/11 12/12/12 
f 11/11/11 10/10/10 13/13/13 
f 14/14/14 15/15/15 16/16/16 
f 17/17/17 18/18/18 19/19/19 
f 20/20/20 21/21/21 22/22/22 
f 23/23/23 24/24/24 25/25/25 
f 26/26/26 27/27/27 28/28/28 
f 1/29/1 29/30/29 2/31/2 
f 30/32/30 31/33/31 32/34/32 
f 33/35/33 34/36/34 35/37/35 
f 36/38/36 37/39/37 38/40/38 
f 39/41/39 40/42/40 41/43/41 
f 16/16/16 42/44/42 43/45/43 
f 44/46/44 45/47/45 46/48/46 
f 47/49/47 12/12/12 11/11/11 
f 48/50/48 49/51/49 50/52/50 
f 51/53/51 52/54/52 53/55/53 
f 54/56/54 55/57/55 56/58/56 
f 57/59/57 58/60/58 59/61/59 
f 60/62/60 61/63/61 62/64/62 
f 63/65/63 64/66/64 65/67/65 
f 66/68/66 67/69/67 68/70/68 
f 18/18/18 17/17/17 69/71/69 
f 59/72/59 22/73/22 70/74/70 
f 46/48/46 6/6/6 44/46/44 
f 71/75/71 66/68/66 72/76/72 
f 68/70/68 35/37/35 66/68/66 
f 73/77/73 74/78/74 75/79/75 
f 76/80/76 70/74/70 48/50/48 
f 45/47/45 9/81/9 8/82/8 
f 61/83/61 60/84/60 77/85/77 
f 31/33/31 30/32/30 78/86/78 
f 79/87/79 54/56/54 80/88/80 
f 27/27/27 26/26/26 81/89/81 
f 34/36/34 33/35/33 2/90/2 
f 43/45/43 82/91/82 40/42/40 
f 83/92/83 65/93/65 64/94/64 
f 44/46/44 84/95/84 85/96/85 
f 86/97/86 12/12/12 87/98/87 
f 37/99/37 36/100/36 88/101/88 
f 13/13/13 56/102/56 55/103/55 
f 77/104/77 89/105/89 47/49/47 
f 90/106/90 91/107/91 89/108/89 
f 5/5/5 50/52/50 49/51/49 
f 27/27/27 51/53/51 92/109/92 
f 93/110/93 53/111/53 52/112/52 
f 32/34/32 31/33/31 74/78/74 
f 94/113/94 25/25/25 8/8/8 
f 5/5/5 4/4/4 28/114/28 
f 95/115/95 23/23/23 15/15/15 
f 96/116/96 41/43/41 40/42/40 
f 3/117/3 19/118/19 1/29/1 
f 32/34/32 97/119/97 30/32/30 
f 84/95/84 44/46/44 6/6/6 
f 49/51/49 6/6/6 5/5/5 
f 15/120/15 14/121/14 95/122/95 
f 95/122/95 98/123/98 81/89/81 
f 65/124/65 99/125/99 63/126/63 
f 99/125/99 62/64/62 47/49/47 
f 56/102/56 13/13/13 10/10/10 
f 21/127/21 20/128/20 58/60/58 
f 74/78/74 100/129/100 32/34/32 
f 101/130/101 102/131/102 93/110/93 
f 4/4/4 103/132/103 104/133/104 
f 103/132/103 46/48/46 45/47/45 
f 105/134/105 17/17/17 19/19/19 
f 35/37/35 68/70/68 105/134/105 
f 106/135/106 41/43/41 82/91/82 
f 25/25/25 94/113/94 23/23/23 
f 88/101/88 107/136/107 37/99/37 
f 107/136/107 71/75/71 63/65/63 
f 23/137/23 95/122/95 24/138/24 
f 95/122/95 81/89/81 26/26/26 
f 102/131/102 101/130/101 73/77/73 
f 70/74/70 76/80/76 59/72/59 
f 91/139/91 90/140/90 12/12/12 
f 90/140/90 87/98/87 12/12/12 
f 108/141/108 74/78/74 31/33/31 
f 31/33/31 78/86/78 79/87/79 
f 29/30/29 1/29/1 51/53/51 
f 52/54/52 51/53/51 109/142/109 
f 110/143/110 19/19/19 18/18/18 
f 54/56/54 79/87/79 78/86/78 
f 111/144/111 28/28/28 27/27/27 
f 92/109/92 111/144/111 27/27/27 
f 72/76/72 35/37/35 98/145/98 
f 35/37/35 72/76/72 66/68/66 
f 57/59/57 80/88/80 58/60/58 
f 10/10/10 112/146/112 56/102/56 
f 82/91/82 42/44/42 106/135/106 
f 82/91/82 43/45/43 42/44/42 
f 2/31/2 113/147/113 34/148/34 
f 29/30/29 113/147/113 2/31/2 
f 64/66/64 63/65/63 71/75/71 
f 114/149/114 16/16/16 43/45/43 
f 40/42/40 39/41/39 115/150/115 
f 65/93/65 83/92/83 60/84/60 
f 55/103/55 88/151/88 13/13/13 
f 67/69/67 69/71/69 68/70/68 
f 112/146/112 10/10/10 86/97/86 
f 12/12/12 86/97/86 10/10/10 
f 116/152/116 93/110/93 102/131/102 
f 93/110/93 116/152/116 53/111/53 
f 85/96/85 117/153/117 44/46/44 
f 45/47/45 44/46/44 117/153/117 
f 98/154/98 14/155/14 72/156/72 
f 98/123/98 95/122/95 14/121/14 
f 104/133/104 28/114/28 4/4/4 
f 28/28/28 104/157/104 24/138/24 
f 19/158/19 30/32/30 97/119/97 
f 19/158/19 110/159/110 30/32/30 
f 16/16/16 72/160/72 14/14/14 
f 72/76/72 16/161/16 114/162/114 
f 108/141/108 75/79/75 74/78/74 
f 80/88/80 57/59/57 79/87/79 
f 55/57/55 54/56/54 118/163/118 
f 118/163/118 54/56/54 78/86/78 
f 22/73/22 85/96/85 84/95/84 
f 117/153/117 85/96/85 87/164/87 
f 92/165/92 53/166/53 48/167/48 
f 53/55/53 92/109/92 51/53/51 
f 117/153/117 89/108/89 45/47/45 
f 9/81/9 45/47/45 89/108/89 
f 97/168/97 109/169/109 19/170/19 
f 109/142/109 97/171/97 52/54/52 
f 71/75/71 107/136/107 66/68/66 
f 67/69/67 66/68/66 107/136/107 
f 24/138/24 26/26/26 28/28/28 
f 26/26/26 24/138/24 95/122/95 
f 41/43/41 106/135/106 7/7/7 
f 41/43/41 7/7/7 39/41/39 
f 40/42/40 115/150/115 83/92/83 
f 40/42/40 83/92/83 43/45/43 
f 39/41/39 77/85/77 60/84/60 
f 89/108/89 77/172/77 9/81/9 
f 80/88/80 112/173/112 58/60/58 
f 21/174/21 58/175/58 112/146/112 
f 17/17/17 105/134/105 68/70/68 
f 17/17/17 68/70/68 69/71/69 
f 69/71/69 67/69/67 88/101/88 
f 107/136/107 88/101/88 67/69/67 
f 51/53/51 27/27/27 29/30/29 
f 119/176/119 29/30/29 27/27/27 
f 12/12/12 47/49/47 91/139/91 
f 91/177/91 47/178/47 89/179/89 
f 49/51/49 48/50/48 70/74/70 
f 6/6/6 49/51/49 84/95/84 
f 69/71/69 55/180/55 18/18/18 
f 55/180/55 69/71/69 88/101/88 
f 114/149/114 43/45/43 64/94/64 
f 64/94/64 43/45/43 83/92/83 
f 99/125/99 65/124/65 62/64/62 
f 60/84/60 62/181/62 65/93/65 
f 103/132/103 4/4/4 46/48/46 
f 6/6/6 46/48/46 4/4/4 
f 99/125/99 38/40/38 37/39/37 
f 11/11/11 99/125/99 47/49/47 
f 87/182/87 22/183/22 21/184/21 
f 22/73/22 87/164/87 85/96/85 
f 73/77/73 59/61/59 102/131/102 
f 59/61/59 73/77/73 57/59/57 
f 9/9/9 39/41/39 7/7/7 
f 39/41/39 9/9/9 77/85/77 
f 32/34/32 52/112/52 97/119/97 
f 52/112/52 32/34/32 100/129/100 
f 56/58/56 80/88/80 54/56/54 
f 80/88/80 56/58/56 112/173/112 
f 79/87/79 108/141/108 31/33/31 
f 108/141/108 79/87/79 57/59/57 
f 42/44/42 15/15/15 23/23/23 
f 42/44/42 16/16/16 15/15/15 
f 18/18/18 118/185/118 110/143/110 
f 118/185/118 18/18/18 55/180/55 
f 113/147/113 81/89/81 98/123/98 
f 29/30/29 119/176/119 113/147/113 
f 94/113/94 7/7/7 106/135/106 
f 7/7/7 94/113/94 8/8/8 
f 78/186/78 110/143/110 118/185/118 
f 110/159/110 78/86/78 30/32/30 
f 48/167/48 50/187/50 92/165/92 
f 111/188/111 92/189/92 50/52/50 
f 120/190/120 13/191/13 88/192/88 
f 38/40/38 13/13/13 120/193/120 
f 35/37/35 105/134/105 33/35/33 
f 19/19/19 3/194/3 105/134/105 
f 99/125/99 11/11/11 38/40/38 
f 13/13/13 38/40/38 11/11/11 
f 47/49/47 61/63/61 77/104/77 
f 61/63/61 47/49/47 62/64/62 
f 22/195/22 59/61/59 20/128/20 
f 20/128/20 59/61/59 58/60/58 
f 71/75/71 114/162/114 64/66/64 
f 114/162/114 71/75/71 72/76/72 
f 103/132/103 8/82/8 25/196/25 
f 8/82/8 103/132/103 45/47/45 
f 74/78/74 101/130/101 100/129/100 
f 74/78/74 73/77/73 101/130/101 
f 63/65/63 37/99/37 107/136/107 
f 37/39/37 63/126/63 99/125/99 
f 57/59/57 75/79/75 108/141/108 
f 75/79/75 57/59/57 73/77/73 
f 84/95/84 70/74/70 22/73/22 
f 70/74/70 84/95/84 49/51/49 
f 109/142/109 1/29/1 19/118/19 
f 1/29/1 109/142/109 51/53/51 
f 23/23/23 106/135/106 42/44/42 
f 106/135/106 23/23/23 94/113/94 
f 60/84/60 115/150/115 39/41/39 
f 115/150/115 60/84/60 83/92/83 
f 86/97/86 21/174/21 112/146/112 
f 21/174/21 86/97/86 87/98/87 
f 96/116/96 40/42/40 82/91/82 
f 96/116/96 82/91/82 41/43/41 
f 100/129/100 93/110/93 52/112/52 
f 93/110/93 100/129/100 101/130/101 
f 104/157/104 25/197/25 24/138/24 
f 25/196/25 104/133/104 103/132/103 
f 116/198/116 48/167/48 53/166/53 
f 48/50/48 116/199/116 76/80/76 
f 28/114/28 111/188/111 5/5/5 
f 50/52/50 5/5/5 111/188/111 
f 89/108/89 117/153/117 90/106/90 
f 87/164/87 90/106/90 117/153/117 
f 102/131/102 76/200/76 116/152/116 
f 76/200/76 102/131/102 59/61/59 
f 81/89/81 119/176/119 27/27/27 
f 81/89/81 113/147/113 119/176/119 
f 98/123/98 34/148/34 113/147/113 
f 34/36/34 98/145/98 35/37/35 
f 33/35/33 3/194/3 2/90/2 
f 3/194/3 33/35/33 105/134/105 
f 36/100/36 120/201/120 88/101/88 
f 120/193/120 36/38/36 38/40/38 
# 236 faces

